HIERARCHY
ROOT joint_Root
{
	OFFSET 0.0 0.0 0.0
	CHANNELS 6 Xposition Yposition Zposition Zrotation Xrotation Yrotation 
	JOINT Hips
	{
		OFFSET 4.5925 91.4895 -427.239
		CHANNELS 6 Xposition Yposition Zposition Zrotation Xrotation Yrotation 
		JOINT Spine
		{
			OFFSET 15.7357 0.0 0.0
			CHANNELS 6 Xposition Yposition Zposition Zrotation Xrotation Yrotation 
			JOINT Chest
			{
				OFFSET 8.98455 -0.406207 0.0
				CHANNELS 6 Xposition Yposition Zposition Zrotation Xrotation Yrotation 
				JOINT Neck
				{
					OFFSET 16.3773 0.0 0.0
					CHANNELS 6 Xposition Yposition Zposition Zrotation Xrotation Yrotation 
					JOINT Head
					{
						OFFSET 6.45672 0.0 0.0
						CHANNELS 6 Xposition Yposition Zposition Zrotation Xrotation Yrotation 
						End Site
						{
							OFFSET 0.0 0.0 0.0
						}
					}
				}
				JOINT Shoulder_L
				{
					OFFSET 12.9942 -0.242716 4.98039
					CHANNELS 6 Xposition Yposition Zposition Zrotation Xrotation Yrotation 
					JOINT UpperArm_L
					{
						OFFSET 5.34809 0.0 0.0
						CHANNELS 6 Xposition Yposition Zposition Zrotation Xrotation Yrotation 
						JOINT LowerArm_L
						{
							OFFSET 24.3286 1.87007e-05 0.0
							CHANNELS 6 Xposition Yposition Zposition Zrotation Xrotation Yrotation 
							JOINT Hand_L
							{
								OFFSET 22.2916 0.0 0.0
								CHANNELS 6 Xposition Yposition Zposition Zrotation Xrotation Yrotation 
								End Site
								{
									OFFSET 0.0 0.0 0.0
								}
							}
						}
					}
				}
				JOINT Shoulder_R
				{
					OFFSET 12.9945 -0.242716 -4.98039
					CHANNELS 6 Xposition Yposition Zposition Zrotation Xrotation Yrotation 
					JOINT UpperArm_R
					{
						OFFSET -5.34813 0.0 0.0
						CHANNELS 6 Xposition Yposition Zposition Zrotation Xrotation Yrotation 
						JOINT LowerArm_R
						{
							OFFSET -24.3289 0.000322201 0.0
							CHANNELS 6 Xposition Yposition Zposition Zrotation Xrotation Yrotation 
							JOINT Hand_R
							{
								OFFSET -22.2915 -0.000108084 0.0
								CHANNELS 6 Xposition Yposition Zposition Zrotation Xrotation Yrotation 
								End Site
								{
									OFFSET 0.0 0.0 0.0
								}
							}
						}
					}
				}
			}
		}
		JOINT UpperLeg_L
		{
			OFFSET -2.19248 -6.46944 0.0
			CHANNELS 6 Xposition Yposition Zposition Zrotation Xrotation Yrotation 
			JOINT LowerLeg_L
			{
				OFFSET 39.0811 0.0 -1.23785e-05
				CHANNELS 6 Xposition Yposition Zposition Zrotation Xrotation Yrotation 
				JOINT Foot_L
				{
					OFFSET 40.9854 0.0 -1.26872e-05
					CHANNELS 6 Xposition Yposition Zposition Zrotation Xrotation Yrotation 
					JOINT Toes_L
					{
						OFFSET 11.7543 0.0 0.0
						CHANNELS 6 Xposition Yposition Zposition Zrotation Xrotation Yrotation 
						End Site
						{
							OFFSET 0.0 0.0 0.0
						}
					}
				}
			}
		}
		JOINT UpperLeg_R
		{
			OFFSET -2.19251 6.46944 0.0
			CHANNELS 6 Xposition Yposition Zposition Zrotation Xrotation Yrotation 
			JOINT LowerLeg_R
			{
				OFFSET -39.0811 -0.00228153 -0.0401928
				CHANNELS 6 Xposition Yposition Zposition Zrotation Xrotation Yrotation 
				JOINT Foot_R
				{
					OFFSET -40.9854 0.0 0.0
					CHANNELS 6 Xposition Yposition Zposition Zrotation Xrotation Yrotation 
					JOINT Toes_R
					{
						OFFSET -11.7543 0.0 0.0
						CHANNELS 6 Xposition Yposition Zposition Zrotation Xrotation Yrotation 
						End Site
						{
							OFFSET 0.0 0.0 0.0
						}
					}
				}
			}
		}
	}
}
MOTION
Frames:	9
Frame Time:	0.0333333
0.000000 0.000000 0.000000 0.000000 0.000000 -0.000000 -7.359250 90.040900 -0.978939 85.641400 -5.843390 13.580200 15.735700 0.000005 -0.000001 72.105700 81.579700 -67.704000 8.984550 -0.406207 -0.000000 8.498400 -5.121910 9.180990 16.377300 -0.000001 -0.000001 29.853800 -8.156830 1.018250 6.456720 -0.000001 -0.000000 16.773900 -7.140130 15.200700 12.994200 -0.242716 4.980390 -87.398900 -6.330940 -67.609200 5.348090 -0.000007 -0.000001 -65.521300 -43.460500 -101.170000 24.328600 0.000019 0.000005 17.055600 12.340900 -55.136700 22.291600 -0.000001 0.000005 18.156000 5.359370 -1.660410 12.994500 -0.242716 -4.980390 87.706700 11.013600 -78.160700 -5.348130 -0.000001 -0.000004 -60.386300 30.735600 -6.010200 -24.328900 0.000322 -0.000009 2.038320 6.775920 -16.794100 -22.291500 -0.000108 -0.000004 14.071700 5.408760 -3.224200 -2.192480 -6.469440 -0.000000 -164.593000 -12.333800 2.970950 39.081100 -0.000007 -0.000012 -0.283297 0.417767 34.142600 40.985400 -0.000006 -0.000013 -3.632400 8.221940 -71.640800 11.754300 -0.000000 0.000003 -0.000094 -0.000975 -16.615000 -2.192510 6.469440 -0.000001 179.792000 23.665900 -173.659000 -39.081100 -0.002282 -0.040193 -0.190470 0.332676 30.219400 -40.985400 0.000008 0.000006 8.945780 15.377100 -73.391100 -11.754300 -0.000006 -0.000006 -0.000891 -0.013852 -17.136500
0.000000 0.000000 0.000000 0.000000 0.000000 -0.000000 -7.428870 90.043000 -0.970224 85.655700 -5.844000 13.543500 15.735700 0.000005 -0.000001 72.130900 81.608100 -67.710700 8.984550 -0.406207 -0.000000 8.446220 -5.099620 9.213990 16.377300 -0.000001 -0.000001 29.781100 -8.134370 0.949661 6.456720 -0.000001 -0.000000 16.769000 -7.072510 15.305800 12.994200 -0.242716 4.980390 -87.370000 -6.367850 -67.502900 5.348090 -0.000007 -0.000001 -65.311500 -43.730700 -101.303000 24.328600 0.000019 0.000005 16.995600 12.371000 -54.971500 22.291600 -0.000001 0.000005 18.126800 5.362410 -1.753210 12.994500 -0.242716 -4.980390 87.704500 11.042000 -78.179100 -5.348130 -0.000001 -0.000004 -60.148700 30.714100 -6.329690 -24.328900 0.000322 -0.000009 2.040590 6.683050 -17.030900 -22.291500 -0.000108 -0.000004 14.068500 5.409890 -3.261670 -2.192480 -6.469440 -0.000000 -164.584000 -12.291500 2.971040 39.081100 -0.000007 -0.000012 -0.281436 0.415920 34.085100 40.985400 -0.000006 -0.000013 -3.695140 8.194340 -71.615100 11.754300 -0.000000 0.000003 -0.000097 -0.001002 -16.616000 -2.192510 6.469440 -0.000001 179.817000 23.719100 -173.655000 -39.081100 -0.002282 -0.040193 -0.189982 0.332369 30.179600 -40.985400 0.000008 0.000006 9.001300 15.409800 -73.411700 -11.754300 -0.000006 -0.000006 -0.000832 -0.012990 -17.101500
0.000000 0.000000 0.000000 0.000000 0.000000 -0.000000 -7.494510 90.030400 -0.943381 85.664500 -5.821080 13.508500 15.735700 0.000005 -0.000001 72.117800 81.639200 -67.673300 8.984550 -0.406207 -0.000000 8.386380 -5.086720 9.258880 16.377300 -0.000001 -0.000001 29.726600 -8.128710 1.024940 6.456720 -0.000001 -0.000000 16.685700 -7.123030 15.194300 12.994200 -0.242716 4.980390 -87.372300 -6.338660 -67.427800 5.348090 -0.000007 -0.000001 -65.113100 -43.906200 -101.337000 24.328600 0.000019 0.000005 17.086300 12.471800 -54.908700 22.291600 -0.000001 0.000005 18.018800 5.360800 -1.704010 12.994500 -0.242716 -4.980390 87.714300 11.009500 -78.194900 -5.348130 -0.000001 -0.000004 -59.926900 30.752500 -6.707550 -24.328900 0.000322 -0.000009 2.059350 6.630030 -17.306900 -22.291500 -0.000108 -0.000004 14.068300 5.411010 -3.298530 -2.192480 -6.469440 -0.000000 -164.550000 -12.270500 2.936760 39.081100 -0.000007 -0.000012 -0.287011 0.423973 34.096800 40.985400 -0.000006 -0.000013 -3.746470 8.205680 -71.620600 11.754300 -0.000000 0.000003 -0.000099 -0.001022 -16.616800 -2.192510 6.469440 -0.000001 179.861000 23.720700 -173.692000 -39.081100 -0.002282 -0.040193 -0.192125 0.335564 30.216100 -40.985400 0.000008 0.000006 9.045840 15.382900 -73.464800 -11.754300 -0.000006 -0.000006 -0.000929 -0.014397 -17.158700
0.000000 0.000000 0.000000 0.000000 0.000000 -0.000000 -7.567140 90.027700 -0.915580 85.698300 -5.748370 13.497400 15.735700 0.000005 -0.000001 72.123500 81.674200 -67.673900 8.984550 -0.406207 -0.000000 8.319420 -5.066670 9.264420 16.377300 -0.000001 -0.000001 29.720700 -8.154430 1.044590 6.456720 -0.000001 -0.000000 16.598500 -7.210650 15.278100 12.994200 -0.242716 4.980390 -87.370400 -6.334520 -67.400200 5.348090 -0.000007 -0.000001 -64.958100 -43.984500 -101.263000 24.328600 0.000019 0.000005 17.059800 12.454000 -54.902100 22.291600 -0.000001 0.000005 17.878400 5.360200 -1.685830 12.994500 -0.242716 -4.980390 87.709400 11.013600 -78.174400 -5.348130 -0.000001 -0.000004 -59.652200 30.816700 -7.102120 -24.328900 0.000322 -0.000009 2.065420 6.517780 -17.634100 -22.291500 -0.000108 -0.000004 14.167800 5.411250 -3.306160 -2.192480 -6.469440 -0.000000 -164.536000 -12.255100 2.950960 39.081100 -0.000007 -0.000012 -0.287772 0.425884 34.047700 40.985400 -0.000006 -0.000013 -3.781750 8.270920 -71.597200 11.754300 -0.000000 0.000003 -0.000098 -0.001008 -16.616200 -2.192510 6.469440 -0.000001 179.862000 23.767300 -173.662000 -39.081100 -0.002282 -0.040193 -0.193256 0.337765 30.196900 -40.985400 0.000008 0.000006 9.074590 15.327300 -73.502300 -11.754300 -0.000006 -0.000006 -0.000959 -0.014817 -17.175800
0.000000 0.000000 0.000000 0.000000 0.000000 -0.000000 -7.644240 90.016000 -0.872146 85.719600 -5.603570 13.552300 15.735700 0.000005 -0.000001 72.056700 81.686400 -67.604000 8.984550 -0.406207 -0.000000 8.290730 -5.078750 9.270350 16.377300 -0.000001 -0.000001 29.689300 -8.224630 1.096760 6.456720 -0.000001 -0.000000 16.585600 -7.360370 15.368700 12.994200 -0.242716 4.980390 -87.356400 -6.363600 -67.384700 5.348090 -0.000007 -0.000001 -64.775000 -44.015100 -101.062000 24.328600 0.000019 0.000005 17.156000 12.505500 -54.953600 22.291600 -0.000001 0.000005 17.860200 5.360550 -1.696440 12.994500 -0.242716 -4.980390 87.715300 10.973500 -78.162400 -5.348130 -0.000001 -0.000004 -59.437300 30.781700 -7.504000 -24.328900 0.000322 -0.000009 2.039070 6.321190 -17.928200 -22.291500 -0.000108 -0.000004 14.192500 5.414140 -3.402910 -2.192480 -6.469440 -0.000000 -164.509000 -12.130300 3.003980 39.081100 -0.000007 -0.000012 -0.288628 0.427438 34.029800 40.985400 -0.000006 -0.000013 -3.830220 8.333760 -71.597300 11.754300 -0.000000 0.000003 -0.000094 -0.000978 -16.615100 -2.192510 6.469440 -0.000001 179.847000 23.843400 -173.566000 -39.081100 -0.002282 -0.040193 -0.190751 0.333379 30.203000 -40.985400 0.000008 0.000006 9.105940 15.250500 -73.561900 -11.754300 -0.000006 -0.000006 -0.000841 -0.013126 -17.107000
0.000000 0.000000 0.000000 0.000000 0.000000 -0.000000 -7.728030 89.999900 -0.828138 85.742200 -5.434750 13.569600 15.735700 0.000005 -0.000001 71.985100 81.706700 -67.536700 8.984550 -0.406207 -0.000000 8.245940 -5.087940 9.260270 16.377300 -0.000001 -0.000001 29.694400 -8.315230 1.204570 6.456720 -0.000001 -0.000000 16.564500 -7.528250 15.453400 12.994200 -0.242716 4.980390 -87.349400 -6.372840 -67.360200 5.348090 -0.000007 -0.000001 -64.544400 -44.037800 -100.831000 24.328600 0.000019 0.000005 17.264100 12.561000 -55.016200 22.291600 -0.000001 0.000005 17.816500 5.358800 -1.642940 12.994500 -0.242716 -4.980390 87.722300 10.931600 -78.154500 -5.348130 -0.000001 -0.000004 -59.229000 30.827100 -7.885890 -24.328900 0.000322 -0.000009 2.078630 6.307590 -18.289900 -22.291500 -0.000108 -0.000004 14.249300 5.412850 -3.359780 -2.192480 -6.469440 -0.000000 -164.506000 -12.028500 2.985220 39.081100 -0.000007 -0.000012 -0.283845 0.419967 34.054300 40.985400 -0.000006 -0.000013 -3.868470 8.381450 -71.607300 11.754300 -0.000000 0.000003 -0.000083 -0.000874 -16.611200 -2.192510 6.469440 -0.000001 179.840000 23.961300 -173.514000 -39.081100 -0.002282 -0.040193 -0.193376 0.337546 30.228200 -40.985400 0.000008 0.000006 9.140000 15.151300 -73.635400 -11.754300 -0.000006 -0.000006 -0.000922 -0.014288 -17.154200
0.000000 0.000000 0.000000 0.000000 0.000000 -0.000000 -7.809420 89.988300 -0.788918 85.767900 -5.268090 13.620800 15.735700 0.000005 -0.000001 71.960400 81.718300 -67.519400 8.984550 -0.406207 -0.000000 8.221250 -5.088680 9.244320 16.377300 -0.000001 -0.000001 29.723400 -8.399970 1.341300 6.456720 -0.000001 -0.000000 16.514100 -7.684740 15.558700 12.994200 -0.242716 4.980390 -87.337500 -6.398380 -67.349800 5.348090 -0.000007 -0.000001 -64.413400 -44.058900 -100.657000 24.328600 0.000019 0.000005 17.342300 12.612900 -55.036200 22.291600 -0.000001 0.000005 17.614900 5.361290 -1.719070 12.994500 -0.242716 -4.980390 87.725700 10.911800 -78.151300 -5.348130 -0.000001 -0.000004 -59.018500 30.747000 -8.230730 -24.328900 0.000322 -0.000009 2.118390 6.315890 -18.593400 -22.291500 -0.000108 -0.000004 14.286800 5.416450 -3.479730 -2.192480 -6.469440 -0.000000 -164.493000 -11.865500 3.023840 39.081100 -0.000007 -0.000012 -0.288308 0.426915 34.032800 40.985400 -0.000006 -0.000013 -3.918920 8.441450 -71.603000 11.754300 -0.000000 0.000003 -0.000101 -0.001036 -16.617300 -2.192510 6.469440 -0.000001 179.836000 23.992100 -173.426000 -39.081100 -0.002282 -0.040193 -0.194059 0.338640 30.234000 -40.985400 0.000008 0.000006 9.151380 15.023100 -73.689900 -11.754300 -0.000006 -0.000006 -0.000805 -0.012597 -17.085500
0.000000 0.000000 0.000000 0.000000 0.000000 -0.000000 -7.894140 89.975300 -0.748205 85.787000 -5.121580 13.648500 15.735700 0.000005 -0.000001 72.099500 81.733700 -67.665300 8.984550 -0.406207 -0.000000 8.201700 -5.042030 9.226600 16.377300 -0.000001 -0.000001 29.722600 -8.468790 1.422200 6.456720 -0.000001 -0.000000 16.520600 -7.821120 15.763500 12.994200 -0.242716 4.980390 -87.335200 -6.404880 -67.353100 5.348090 -0.000007 -0.000001 -64.376100 -44.028000 -100.629000 24.328600 0.000019 0.000005 17.342400 12.651800 -54.954900 22.291600 -0.000001 0.000005 17.592500 5.359640 -1.668550 12.994500 -0.242716 -4.980390 87.723300 10.923100 -78.150600 -5.348130 -0.000001 -0.000004 -58.764000 30.804200 -8.537760 -24.328900 0.000322 -0.000009 2.080350 6.079180 -18.941000 -22.291500 -0.000108 -0.000004 14.289900 5.417660 -3.520200 -2.192480 -6.469440 -0.000000 -164.473000 -11.756100 3.042080 39.081100 -0.000007 -0.000012 -0.290493 0.430230 34.028000 40.985400 -0.000006 -0.000013 -3.960370 8.503480 -71.608700 11.754300 -0.000000 0.000003 -0.000092 -0.000954 -16.614200 -2.192510 6.469440 -0.000001 179.836000 24.078500 -173.354000 -39.081100 -0.002282 -0.040193 -0.195996 0.341894 30.239000 -40.985400 0.000008 0.000006 9.179800 14.922100 -73.751500 -11.754300 -0.000006 -0.000006 -0.000953 -0.014742 -17.172700
0.000000 0.000000 0.000000 0.000000 0.000000 -0.000000 -7.977190 89.970000 -0.708348 85.815700 -4.967130 13.679100 15.735700 0.000005 -0.000001 72.140300 81.755200 -67.721700 8.984550 -0.406207 -0.000000 8.162280 -5.019460 9.192100 16.377300 -0.000001 -0.000001 29.779400 -8.508420 1.456900 6.456720 -0.000001 -0.000000 16.530700 -7.897340 15.963200 12.994200 -0.242716 4.980390 -87.325900 -6.411380 -67.302400 5.348090 -0.000007 -0.000001 -64.402400 -43.913200 -100.653000 24.328600 0.000019 0.000005 17.301400 12.678200 -54.831800 22.291600 -0.000001 0.000005 17.525400 5.359580 -1.666910 12.994500 -0.242716 -4.980390 87.726300 10.932300 -78.175300 -5.348130 -0.000001 -0.000004 -58.585200 30.830300 -8.769010 -24.328900 0.000322 -0.000009 2.103080 6.075760 -19.143000 -22.291500 -0.000108 -0.000004 14.335200 5.419590 -3.585080 -2.192480 -6.469440 -0.000000 -164.468000 -11.628700 3.075850 39.081100 -0.000007 -0.000012 -0.289580 0.429627 33.981600 40.985400 -0.000006 -0.000013 -4.012360 8.549800 -71.588600 11.754300 -0.000000 0.000003 -0.000094 -0.000975 -16.615000 -2.192510 6.469440 -0.000001 179.803000 24.205200 -173.262000 -39.081100 -0.002282 -0.040193 -0.195070 0.340653 30.213700 -40.985400 0.000008 0.000006 9.220770 14.890100 -73.801500 -11.754300 -0.000006 -0.000006 -0.000867 -0.013498 -17.122100
